<?xml version="1.0" encoding="utf-8"?>
<!-- Generator: Adobe Illustrator 20.1.0, SVG Export Plug-In . SVG Version: 6.00 Build 0)  -->
<svg version="1.1" id="clippaths" xmlns="http://www.w3.org/2000/svg" xmlns:xlink="http://www.w3.org/1999/xlink" x="0px" y="0px"
	 viewBox="0 0 1920 1080" style="enable-background:new 0 0 1920 1080;" xml:space="preserve">
<style type="text/css">
	.st0{fill:none;stroke:#000000;stroke-width:0.25;stroke-miterlimit:10;}
	.st1{fill:none;stroke:#000000;stroke-width:0.25;stroke-linecap:round;stroke-linejoin:round;stroke-miterlimit:10;}
</style>
<polygon id="PRP02A" class="st0" points="316.7,402 587.1,402 586.7,580 334.1,580 316.7,594 "/>
<polygon id="PRP03A" class="st1" points="311,686.5 316.7,599.8 349.2,582.4 714.5,582.4 714.5,593.9 678,691 581.5,680.1 
	581.5,640 595.8,585 544.8,584.8 540.3,604.3 418.9,605.4 408.5,686.8 "/>
<polygon id="PRP13A" class="st1" points="436.5,681.2 581.2,679 581.1,668.7 580.7,668 580.8,592.3 584.6,587.1 551.5,586.4 
	537,615.7 454.6,614.1 "/>
<polygon id="PRP33A" class="st1" points="852.3,663.5 960,655.3 956.5,580 908.5,580.8 842.2,633.2 "/>
<polygon id="PRP44A" class="st1" points="909.9,665.1 1147.2,665.1 1147.2,821.2 1200.9,826.4 1203,877.7 1300.7,885.3 
	1312.6,909.7 1311.4,934.9 1237.1,1006.3 926,1005.2 "/>
<polygon id="PRP71A" class="st1" points="1307.9,860.5 1309,901.4 1398,901.3 1419.3,600.4 1407.9,151.8 1292.1,163.7 1333.7,256 
	1313.3,282.3 1322.7,310.3 1329,337 1330,419 1351.3,462 1331.3,488.3 1321.5,666.7 1327.6,860.8 "/>
<polygon id="PRP76A" class="st1" points="1331.8,989.8 1399.7,989.2 1397.3,1045.7 1326.7,1045.7 "/>
<polygon id="PRP61A" class="st1" points="1323.8,859.4 1301.9,859.9 1246.2,874.5 1203,852 1203,824.8 1158.3,803.7 1155.4,655.6 
	988.7,645.5 992,583.5 1116.7,577 1116.7,392.5 1149.8,310 1162.8,216.2 1300.4,192 1330.3,251.8 1305.4,287.2 1327.8,345.2 
	1328.3,424 1334.7,440.8 1325,457.7 1319.2,609.5 1319.3,721.5 1322.3,734 "/>
<polygon id="PRP40A" class="st1" points="931.5,81.5 931.5,419.5 1104.8,411.5 1140.5,310.6 1157.6,212.2 1258.5,195 1252.5,84 "/>
<polygon id="EXS02A" class="st1" points="310.5,394 584.4,394 580.8,583.5 343.4,587.7 318.5,597.3 "/>
<polygon id="EXS03A" class="st1" points="316,690.3 320,599.3 344.3,590 634.6,584 682.2,598.5 683,690.3 576.1,690.3 576.1,587.7 
	469.5,588.2 459.4,600.6 424.5,602.5 419.8,692.3 "/>
<polygon id="EXS13A" class="st1" points="422.3,692.3 427,608.7 474.8,600.6 480.3,590.3 554.3,590.3 561.6,688.3 "/>
<polygon id="EXS33A" class="st1" points="849.3,683.7 986.9,673.6 985,654.8 973.1,644.6 977.8,589.7 1076.9,595.1 1083,603.6 
	1085.1,673.6 1103.3,672.6 1100.3,587 1061.2,546.9 919.3,563.5 849.3,646.5 "/>
<polygon id="EXS61A" class="st1" points="989,659.6 986.9,650.9 975.7,643.8 981.7,596.3 1078.7,603.6 1077.4,659.9 1085.1,674.9 
	1107.3,674.9 1120,269 1158.9,254 1207,244 1211,190 1322.4,188.2 1327,485.7 1324.1,917.5 1302.1,917 1303.4,839.7 1198.4,837.9 
	1138.3,814.8 1119.5,690.9 1090.8,677.7 1082.8,675.9 "/>
<polygon id="EXS44A" class="st1" points="1083.7,677.7 1072.9,675.4 1039.4,674.9 958.8,697.8 933.5,978.1 936.5,1010 1107,1010 
	1300,990.2 1297.5,846 1192.8,844.3 1127.5,829.1 1111.8,696.3 "/>
<polygon id="EXS76A" class="st1" points="1408.4,968.6 1367.9,968.6 1322.7,993 1322.7,1057.8 1415.5,1057.8 1415.5,983.3 "/>
<polygon id="EXS71A" class="st1" points="1417.8,967.6 1338.8,967.6 1329.3,505.9 1336.9,140.4 1420.7,142.5 "/>
<polygon id="EXS40A" class="st1" points="907.5,422.5 974.5,422.5 1106.5,401 1108.5,264.9 1204.5,235 1207.1,187 1297.4,183 
	1297.4,120 1244.2,86 930,86 "/>
</svg>
