<svg xmlns="http://www.w3.org/2000/svg" xmlns:xlink="http://www.w3.org/1999/xlink" viewBox="0 0 1920 1080">
<style>
    .st0{display:none;} .st1{display:inline;} .st2{fill:none;stroke:#000000;stroke-width:0.25;stroke-linecap:round;stroke-linejoin:round;stroke-miterlimit:10;} .st3{stroke:#000000;stroke-width:0.25;stroke-linecap:round;stroke-linejoin:round;stroke-miterlimit:10;} .st4{fill-rule:evenodd;clip-rule:evenodd;stroke:#000000;stroke-width:0.25;stroke-miterlimit:10;} .st5{fill:none;stroke:#000000;stroke-width:0.25;stroke-linecap:round;stroke-linejoin:round;stroke-miterlimit:10;stroke-dasharray:50.4448,33.6298;} .st6{stroke:#000000;stroke-width:0.25;stroke-linecap:round;stroke-linejoin:round;stroke-miterlimit:10;stroke-dasharray:50.4448,33.6298;} .st7{fill-rule:evenodd;clip-rule:evenodd;fill:none;stroke:#000000;stroke-width:0.25;stroke-miterlimit:10;} .st8{display:inline;fill:none;stroke:#FFFFFF;stroke-width:0.25;stroke-linecap:round;stroke-linejoin:round;stroke-miterlimit:10;} .st9{display:inline;fill:none;stroke:#FF00BF;stroke-miterlimit:10;} .st10{fill:none;stroke:#000000;stroke-width:0.25;stroke-miterlimit:10;} .st11{fill:none;stroke:#000000;stroke-width:0.25;stroke-linecap:round;stroke-linejoin:round;stroke-miterlimit:10;stroke-dasharray:5.550947e-02,3.700631e-02;} .st12{fill:none;stroke:#000000;stroke-width:0.25;stroke-linecap:round;stroke-linejoin:round;stroke-miterlimit:10;stroke-dasharray:2.936886e-02,2.936886e-02;} .st13{fill:none;stroke:#000000;stroke-width:0.25;stroke-linecap:round;stroke-linejoin:round;stroke-miterlimit:10;stroke-dasharray:1.480006e-02,1.480006e-02;} .st14{fill:none;stroke:#000000;stroke-width:0.3685;stroke-linecap:round;stroke-linejoin:round;stroke-miterlimit:10;} .st15{fill:none;stroke:#000000;stroke-width:0.25;stroke-linecap:round;stroke-linejoin:round;stroke-miterlimit:10;stroke-dasharray:2.0816,0.3469,0.3469,0.3469;} .st16{fill:none;stroke:#000000;stroke-width:0.25;} .st17{font-family:&apos;ArialNarrow&apos;;} .st18{font-size:2.9775px;} .st19{fill:none;stroke:#000000;stroke-width:0.25;stroke-linecap:round;stroke-linejoin:round;stroke-miterlimit:10;stroke-dasharray:3.203921e-02,2.135947e-02;} .st20{font-size:2.9739px;} .st21{opacity:0.49;} .st22{fill:#E97E00;} .st23{opacity:0.49;fill:#E97E00;} .st24{display:inline;fill:#FFFFFF;stroke:#000000;stroke-miterlimit:10;} .st25{font-family:&apos;AIGDT&apos;;} .st26{font-size:36px;}
  </style>
<g id="clippaths">
    <g id="EXS02A">
      <defs>
        <path id="_x30_2A_x5F_EXS_1_" d="M310.5 394h274l-3.7 189.5-237.4 4.2-25 9.6z"/>
      </defs>
      <clipPath id="_x30_2A_x5F_EXS_2_">
        <use xlink:href="#_x30_2A_x5F_EXS_1_" overflow="visible"/>
      </clipPath>
    </g>
    <g id="EXS03A">
      <defs>
        <path id="_x30_3A_x5F_EXS_1_" d="M316 690.3l4-91 24.3-9.3 290.3-6 47.6 14.5.8 91.8H576V587.7l-106.5.5-10 12.4-35 2-4.7 89.7z"/>
      </defs>
      <clipPath id="_x30_3A_x5F_EXS_2_">
        <use xlink:href="#_x30_3A_x5F_EXS_1_" overflow="visible"/>
      </clipPath>
    </g>
    <g id="EXS13A">
      <defs>
        <path id="_x31_3A_x5F_EXS_1_" d="M422.3 692.3l4.7-83.6 47.8-8 5.5-10.4h74l7.3 98z"/>
      </defs>
      <clipPath id="_x31_3A_x5F_EXS_2_">
        <use xlink:href="#_x31_3A_x5F_EXS_1_" overflow="visible"/>
      </clipPath>
    </g>
    <g id="EXS33A">
      <defs>
        <path id="_x33_3A_x5F_EXS_1_" d="M849.3 683.7l137.6-10-2-19-12-10 4-55 99 5.4 6 9 2 70 18-1-3-85-39-40-141 16-70 83z"/>
      </defs>
      <clipPath id="_x33_3A_x5F_EXS_2_">
        <use xlink:href="#_x33_3A_x5F_EXS_1_" overflow="visible"/>
      </clipPath>
    </g>
    <g id="EXS61A">
      <defs>
        <path id="_x36_1A_x5F_EXS_1_" d="M989 659.6l-2-8.7-11.3-8 6-48 97 7-1.3 56 7.7 15h23l13-406 39-15 48-10 4-54 112-2 5 297-3 432-22-1 2-78-105-2-60-23-19-124-28-13-8-2z"/>
      </defs>
      <clipPath id="_x36_1A_x5F_EXS_2_">
        <use xlink:href="#_x36_1A_x5F_EXS_1_" overflow="visible"/>
      </clipPath>
    </g>
    <g id="EXS44A">
      <defs>
        <path id="_x34_4A_x5F_EXS_1_" d="M1083.7 677.7l-10.8-2.3-34-.5-81 22-25 280 3 32h171l193-20-3-144-105-2-66-16-16-132z"/>
      </defs>
      <clipPath id="_x34_4A_x5F_EXS_2_">
        <use xlink:href="#_x34_4A_x5F_EXS_1_" overflow="visible"/>
      </clipPath>
    </g>
    <g id="EXS76A">
      <defs>
        <path id="_x37_6A_x5F_EXS_1_" d="M1408.4 968.6H1368l-45.3 24.4v64.8h92.8v-74.5z"/>
      </defs>
      <clipPath id="_x37_6A_x5F_EXS_2_">
        <use xlink:href="#_x37_6A_x5F_EXS_1_" overflow="visible"/>
      </clipPath>
    </g>
    <g id="EXS71A">
      <defs>
        <path id="_x37_1A_x5F_EXS_1_" d="M1417.8 967.6h-79l-9.5-461.7 7.7-366 83.5 2z"/>
      </defs>
      <clipPath id="_x37_1A_x5F_EXS_2_">
        <use xlink:href="#_x37_1A_x5F_EXS_1_" overflow="visible"/>
      </clipPath>
    </g>
    <g id="EXS40A">
      <defs>
        <path id="_x34_0A_x5F_EXS_1_" d="M907.5 422.5h67l132-21.5 2-136 96-30 2.6-48 91-4v-63l-53-34H930z"/>
      </defs>
      <clipPath id="_x34_0A_x5F_EXS_2_">
        <use xlink:href="#_x34_0A_x5F_EXS_1_" overflow="visible"/>
      </clipPath>
    </g>
    <g id="PRP02A">
      <defs>
        <path id="_x30_2A_x5F_PRP_1_" d="M316.7 402H587l-.3 178H334l-17.3 14z"/>
      </defs>
      <clipPath id="_x30_2A_x5F_PRP_2_">
        <use xlink:href="#_x30_2A_x5F_PRP_1_" overflow="visible"/>
      </clipPath>
    </g>
    <g id="PRP03A">
      <defs>
        <path id="_x30_3A_x5F_PRP_1_" d="M311 686.5l5.7-86.7 32.5-17.4h365.3V594L678 691l-96.5-11v-40l14.3-55-51-.2-4.5 19.5-121.4 1-11 81.5z"/>
      </defs>
      <clipPath id="_x30_3A_x5F_PRP_2_">
        <use xlink:href="#_x30_3A_x5F_PRP_1_" overflow="visible"/>
      </clipPath>
    </g>
    <g id="PRP13A">
      <defs>
        <path id="_x31_3A_x5F_PRP_1_" d="M436.5 681.2l144.7-2.2v-10.3l-.5-.7v-75.7l4-5.2h-33.2L537 616l-82.4-1.7z"/>
      </defs>
      <clipPath id="_x31_3A_x5F_PRP_2_">
        <use xlink:href="#_x31_3A_x5F_PRP_1_" overflow="visible"/>
      </clipPath>
    </g>
    <g id="PRP33A">
      <defs>
        <path id="_x33_3A_x5F_PRP_1_" d="M852.3 663.5l107.7-8.2-3.5-75.3-48 .8-66.3 52.4z"/>
      </defs>
      <clipPath id="_x33_3A_x5F_PRP_2_">
        <use xlink:href="#_x33_3A_x5F_PRP_1_" overflow="visible"/>
      </clipPath>
    </g>
    <g id="PRP44A">
      <defs>
        <path id="_x34_4A_x5F_PRP_1_" d="M910 665h237v156.2l53.7 5.2 2 51.3 97.7 7.6 12 24.4-1.3 25.2-74 71-311-1z"/>
      </defs>
      <clipPath id="_x34_4A_x5F_PRP_2_">
        <use xlink:href="#_x34_4A_x5F_PRP_1_" overflow="visible"/>
      </clipPath>
    </g>
    <g id="PRP71A">
      <defs>
        <path id="_x37_1A_x5F_PRP_1_" d="M1308 860.5l1 41 89-.2 21.3-301L1408 152l-116 12 41.7 92.2-20.4 26.3 9.4 28 6.3 26.7 1 82 21.3 43-20 26.3-9.8 178.4 6 194z"/>
      </defs>
      <clipPath id="_x37_1A_x5F_PRP_2_">
        <use xlink:href="#_x37_1A_x5F_PRP_1_" overflow="visible"/>
      </clipPath>
    </g>
    <g id="PRP76A">
      <defs>
        <path id="_x37_6A_x5F_PRP_1_" d="M1331.8 989.8l68-.6-2.5 56.5h-70.6z"/>
      </defs>
      <clipPath id="_x37_6A_x5F_PRP_2_">
        <use xlink:href="#_x37_6A_x5F_PRP_1_" overflow="visible"/>
      </clipPath>
    </g>
    <g id="PRP76A_1_">
      <defs>
        <path id="_x36_1A_x5F_PRP_1_" d="M1323.8 859.4l-22 .5-55.6 14-43.2-22v-28l-44.7-21-3-149-166.6-10 3.3-62 124.7-7V392l33-82.5 13-94 137.7-24 30 59.3-25 35.3 22.4 58 .5 79 6.4 17-9.7 17-5.8 152v112l3 13z"/>
      </defs>
      <clipPath id="_x36_1A_x5F_PRP_2_">
        <use xlink:href="#_x36_1A_x5F_PRP_1_" overflow="visible"/>
      </clipPath>
    </g>
    <g id="PRP40A">
      <defs>
        <path id="_x34_0A_x5F_PRP_1_" d="M931.5 81.5v338l173.3-8 35.7-101 17-98.3 101-17.2-6-111z"/>
      </defs>
      <clipPath id="_x34_0A_x5F_PRP_2_">
        <use xlink:href="#_x34_0A_x5F_PRP_1_" overflow="visible"/>
      </clipPath>
    </g>
</g>

<g id="Zones">
    <path id="CON76A" d="M1405.2 972h-79.8c-2.8 0-5 2.4-5 5.2v72.4c0 2.8 2.2 5 5 5h79.8c2.8 0 5-2.2 5-5v-72.4c0-2.8-2.2-5-5-5z" class="st21 st22"/>
    <path id="CON71A" d="M1409.2 961V156c0-2.7-2.3-5-5-5h-81.5c-2.8 0-5 2.3-5 5v805c0 3 2.2 5.2 5 5.2h81.4c3 0 6-2.3 6-5z" class="st21 st22"/>
    <path id="CON70A" d="M1319.2 35.6v102.7c0 2.8 2.3 5 5 5h80.5c2.8 0 5-2.2 5-5V35.6c0-2.8-2.2-5-5-5h-80.4c-2.8 0-5 2.2-5 5z" class="st21 st22"/>
    <path id="CON66A" d="M1271.8 1008.4v44c0 3 2.3 5.2 5 5.2h29.8c2.8 0 5-2.3 5-5v-44.2c0-2.8-2.2-5-5-5H1277c-3 0-5.2 2.2-5.2 5z" class="st21 st22"/>
    <path id="CON61A" d="M1197.7 189.6h119.8c3 0 5.5 2.3 5.5 5l-.5 652c0 2.7-2.5 5-5.5 5h-117.2c-3 0-5.5-2.3-5.5-5V674c0-2.8-2.5-5-5.5-5h-61.2c-3 0-5.5-2.4-5.5-5.2V237.2c0-2.8 3-5 6-5h59c3 0 6-2.4 6-5.2v-32.4c0-2.7 3-5 6-5z" class="st21 st22"/>
    <path id="CON60A" d="M1248.2 37v59.6c0 2.8 2.3 5 5 5h42.4c2.8 0 5-2.2 5-5V37c0-2.7-2.2-5-5-5h-42.3c-2.8 0-5 2.3-5 5z" class="st21 st22"/>
    <path id="CON44A" d="M948.6 684.5V994c0 2.7 2.3 5 5 5h118c2.7 0 5-2.3 5-5v-30.3c0-2.8 2.3-5 5-5h81.8c2.8 0 5 2.2 5 5V989c0 2.7 2.4 5 5.2 5h94c3 0 5.2-2.3 5.2-5v-3.6c0-2.8 2.3-5 5-5h27.5c2.8 0 5-2.4 5-5.2V856.7c0-2.8-2.2-5-5-5h-107.5c-2.8 0-5-2.4-5-5.2v-162c0-2.8-2.4-5-5.2-5h-234c-2.7 0-5 2.2-5 5z" class="st21 st22"/>
    <path id="CON43A" d="M936.3 592.5V768c0 2.8 2.3 5 5 5H1092c3 0 5.3-2.2 5.3-5V592.5c0-2.8-2.3-5-5-5h-151c-3 0-5 2.2-5 5zm155.7-36h-74.6c-2.8 0-5 2.4-5 5v.5c0 2.8 2.2 5 5 5h74.7c3 0 6-2.2 6-5v-.3c0-2.8-2-5-5-5zm-99.5 0h-27.7c-2.8 0-5 2.4-5 5v.5c0 2.8 2.2 5 5 5h27.7c2.8 0 5-2.2 5-5v-.3c0-2.8-2.2-5-5-5zm-88-3h-99c-2.8 0-5 3.7-5 8.3v.4c0 4.6 2.2 8.4 5 8.4h99c2.8 0 5-3.8 5-8.4v-.4c0-4.6-2.2-8.4-5-8.4zm-122 0h-137c-2.6 0-5 3.8-5 8.4 0 4 2.4 8 5 8h137c3 0 5-4 5-9v-1c0-5-2-9-5-9z" class="st23"/>
    <path id="CON40A" d="M1096.2 468.7v89c0 2.7-2.3 5-5 5H1018c-2.8 0-5 2.3-5 5v7.5c0 2.8 2.2 5 5 5h95.7c2.8 0 5-2.2 5-5V468.7c0-2.8-2.2-5-5-5h-12.4c-2.8 0-5 2.2-5 5zm0-63.2v36.8c0 2.8 2.3 5 5 5h12.5c2.8 0 5-2.2 5-5v-36.8c0-2.8-2.2-5-5-5h-12.4c-2.8 0-5 2.2-5 5zM936.6 397V96.6c0-2.8 2.3-5 5-5h179.6c2.8 0 5 2.2 5 5v5.5h112c2.8 0 5 3 5 5v78c0 3-2.2 5-5 5H1196c-2.8 0-5 3-5 6v32c0 3-2.4 5-5.2 5h-55c-2.7 0-5 3-5 5v140c0 3-2.3 5-5 5H1080c-2.7 0-5 3-5 5v9c0 3-2.3 5-5 5H941.6c-2.8 0-5-2-5-5z" class="st23"/>
    <path id="CON33A" d="M676.3 595v83c0 3 2 5.5 4.7 5.5h265c2.5 0 4.6-2.4 4.6-5.4v-83c0-3-2-5-4.7-5H681c-2.6 0-4.7 3-4.7 6zm408.7 2.3v73.4c0 3 2.3 5.3 5 5.3h3c2.7 0 5-2.4 5-5.3v-73.4c0-3-2.3-5.3-5-5.3h-3c-2.7 0-5 2.3-5 5.3z" class="st23"/>
    <path id="CON23A" d="M575 594.8V681c0 3 2.4 5.2 5.5 5.2h90c3.2 0 5.7-2.3 5.7-5v-86.4c0-2.8-2.5-5-5.6-5h-90c-3.2 0-5.7 2.2-5.7 5z" class="st21 st22"/>
    <path id="CON13A" d="M569.8 589.7H437c-2.8 0-5 2.3-5 5v86.5c0 2.8 2.2 5 5 5h132.8c2.8 0 5-2.2 5-5v-86.4c0-2.8-2.2-5-5-5z" class="st21 st22"/>
    <path id="CON03A" d="M318.3 594.8V681c0 3 2.8 5.2 6.3 5.2h101c3.5 0 6.3-2.3 6.3-5v-86.4c0-2.8-3-5-7-5H324c-3.4 0-6.2 2.2-6.2 5zm244.4-22.6v16.6c0 .5 3.5 1 8 1h125.6c4.3 0 8-.4 8-1v-16.6c0-.5-3.6-1-8-1H570.5c-4.3 0-7.8.4-7.8 1z" class="st23"/>
    <path id="CON02A" d="M318.3 414.5v169.3c0 3.2 2.2 6 4.8 6h234c3 0 5-2.7 5-6V414.4c0-3.2-2-6-5-6l-233 .2c-2 0-4 2.7-4 6z" class="st21 st22"/>
  </g>
</svg>