<?xml version="1.0" encoding="utf-8"?>
<!-- Generator: Adobe Illustrator 20.1.0, SVG Export Plug-In . SVG Version: 6.00 Build 0)  -->
<svg version="1.1" id="Layer_1" xmlns="http://www.w3.org/2000/svg" xmlns:xlink="http://www.w3.org/1999/xlink" x="0px" y="0px"
	 viewBox="0 0 1593.1 1123.2" style="enable-background:new 0 0 1593.1 1123.2;" xml:space="preserve">
<style type="text/css">
	.st0{fill:none;stroke:#FF00BF;stroke-miterlimit:10;}
	.st1{fill:none;stroke:#000000;stroke-width:0.25;stroke-miterlimit:10;}
	.st2{fill:none;stroke:#000000;stroke-width:0.25;stroke-linecap:round;stroke-linejoin:round;stroke-miterlimit:10;}
</style>
<path class="st0" d="M676.4,400.1l0-2.6h-2.2l-0.4,5l-10.3,0l-0.3-5.1h-2.2v2.6h-0.8v-0.7v-0.2h-0.2h-0.2h-0.2v0v0v0v0l-7.1,0H646v0
	v0v0v0h-0.2h-0.2h-0.2v0.2v0.7h-0.8v-2.6h-2.2l-0.4,5.1l-10.3,0l-0.3-5.1l-2.2,0v3.4l0-0.8h-0.8v-0.7v-0.2l-0.4,0h-0.2v0v0v0v0h-6.9
	h-6.6v0v0v0v0h-0.2h-0.2h-0.2v0.2v0.7h-0.9v-2.6l-2.2,0l-0.3,5l-10.6-0.1l-0.5-5.1l-2.2,0v2.6h-0.8v-0.7V399l-0.4,0h-0.2v0v0v0v0
	H589h-6.6v0v0v0v0h-0.2H582h-0.2v0.2l0,1.5l0-0.8H581v-2.6h-2.2l-0.3,5.1l-10.6,0l-0.3-5.1l-2.2,0v2.6h0h-0.8v-0.7v-0.2h-0.2H564
	h-0.2v0v0v0v0h-6.9l-6.6,0v0v0v0v0h-0.2H550h-0.2v0.2v0.7h-0.8v-2.6h-2.2l-0.5,5.1h-9.8l-0.5-5.1h-2.2v2.6h-0.8v-0.7v-0.2h-0.2h-0.2
	h-0.2v0v0v0v0l-6.6,0h-6.6v0v0v0v0H519h-0.2h-0.2v0.2v0.7h-0.8v-2.6h-2.2l-0.5,5.1l-10.7,0l-0.4-5.1l-2.2,0l0,2.6h-0.4h-0.9v-0.7
	v-0.2h-0.2h-0.2h-0.2v0v0v0v0h-6.6h-6.6v0v0v0v0h-0.2h-0.2h-0.2v0.2v0.7h-0.9v-2.6l-2.2,0l-0.5,5.1H473l-0.5-5.1h-2.2v2.6h-0.8v-0.7
	v-0.2h-0.2h-0.2h-0.2v0v0v0v0l-6.6,0h-5.4v0v0v0v0h-0.2h-0.2h-0.2v0.2v0.7h-0.8v0.9h0v-3.5h-2.2l-0.5,5.1h-13.3l-0.5-5.1l-2.2,0v2.6
	h-0.8v-0.7v-0.2h-0.2h-0.2h-0.2v0v0v0v0h-5.4h-4.8v0v0v0v0H425h-0.2h-0.2v0.2v0.7h-0.8v-2.6h-2.2l-0.5,5.1l-10,0l-0.5-5.1h-2.2v2.6
	h-0.8v-0.7v-0.2h-0.2h-0.2H407v0v0v0v0h-6.6l-6.6,0v0v0v0v0h-0.2l-0.2,0h-0.2v0.2v0.7h-0.8v0.8h0v-3.4h-2.2l-0.5,5.1h-10.6l-0.5-5
	l-2.2,0v2.6h-0.8v-0.7v-0.2h-0.2h-0.2H375v0v0v0v0h-6.6h-7v0v0v0v0h-0.2H361h-0.2v0.2v0.7H360v0.8h0v-3.5l-2.2,0l-0.5,5l-10.1,0
	l-0.5-5.1h-2.2l0,2.6h-0.8v-0.7v-0.2h-0.2h-0.2h-0.2v0v0v0v0h-6.6h-6.7v0v0v0v0h-0.2h-0.2h-0.2v0.2l0,0.7h-0.9v0.8h-0.1l0-3.5
	l-2.2,0l-0.5,5.1h-11.7l0,12.3l-5.4,1.2l0,2l2.8,0v0h-0.9v0.8h-0.7h-0.2v0.2v0.3c0,0,0,0,0,0c0,0,0,0,0,0v13.3c0,0,0,0,0,0
	c0,0,0,0,0,0v0.5h0.2h0.7v0.8h-2.6v2.2l5.7,0.5v91.5h0l-5.8,0.5v2.2l5.1,0h3.7h2.6v1l-0.8,0v0.8h-0.3h-0.2v0.2v0.3c0,0,0,0,0,0
	c0,0,0,0,0,0v21v0v4.8c0,0,0,0,0,0c0,0,0,0,0,0v0.3v0.2h0.2h0.3v0.8h0.8v1h-1.3h-1.3l-2.9,0h-0.8l-5.1,0v2.2l5.8,0.5h0.1l0,90.1
	l-5.7,0.5v2.2h2.6v0.8l-0.7,0h-0.2v0.5c0,0,0,0,0,0c0,0,0,0,0,0v13.3c0,0,0,0,0,0c0,0,0,0,0,0v0.3v0.2h0.2h0.7v0.8v0h-2.6v2.2
	l5.8,0.5l0.5,12.4h11.4l0.5,3.3h1.4v0.8h0.8v0.3v0.2h0.5c0,0,0,0,0,0s0,0,0,0h6.8h4.8c0,0,0,0,0,0c0,0,0,0,0,0h0.5v-0.2v-0.3h0.9
	v-0.8h1.4l0.3-3.5h13.6l0.3,3.5h1.4v0.8h0.9v0.3v0.2h0.5c0,0,0,0,0,0c0,0,0,0,0,0h6.8h4.8c0,0,0,0,0,0c0,0,0,0,0,0h0.5v-0.2v-0.3
	h0.8v-0.8h1.4l0.3-3.5h13.7l0.3,3.5h1.4v0.8h0.8v0.3v0.2h0.5c0,0,0,0,0,0s0,0,0,0h6.8h4.8c0,0,0,0,0,0c0,0,0,0,0,0h0.5v-0.2v-0.3
	h0.8v-0.8h1.4l0.3-3.5h13.7l0.3,3.5h1.4v0.8h0.8v0.3v0.2h0.5c0,0,0,0,0,0s0,0,0,0h6.8h4.8c0,0,0,0,0,0c0,0,0,0,0,0h0.5v-0.2v-0.3
	h0.8v-0.8h1.3l0.3-5.1l13.9,0l1,5.1h1.4v0.8h0.9v0.3v0.2h0.2h0.3c0,0,0,0,0,0c0,0,0,0,0,0h6.9h4.8c0,0,0,0,0,0c0,0,0,0,0,0h0.3h0.2
	v-0.2v-0.3h0.8v-0.8h1.4l0.3-3.5h14.4l0.3,3.5h1.4v0.8h0.8v0.3v0.2h0.2h0.3c0,0,0,0,0,0c0,0,0,0,0,0h6.9h4.8c0,0,0,0,0,0
	c0,0,0,0,0,0h0.3h0.2v-0.2v-0.3h0.8v-0.8h1.4l0.3-3.5h13.9l0.3,3.5h1.4v0.8h0.8v0.3v0.2h0.2h0.3c0,0,0,0,0,0c0,0,0,0,0,0h6.9h4.8
	c0,0,0,0,0,0c0,0,0,0,0,0h0.3h0.2v-0.2v-0.3h0.8v-0.8h1.4l0.3-3.5h14.3l0.3,3.5h1.4v0v0.8h0.8v0.3v0.2h0.5c0,0,0,0,0,0s0,0,0,0h6.8
	h4.3c0,0,0,0,0,0s0,0,0,0h0.5v-0.2v-0.3h0.9v-0.8h1.3l0.3-5.1l13,0l1,5.1h1.4v0.8h0.8v0.3v0.2h0.2h0.3c0,0,0,0,0,0c0,0,0,0,0,0h6.9
	h4.8c0,0,0,0,0,0c0,0,0,0,0,0h0.3h0.2v-0.2v-0.3h0.8v-0.8h1.4l0.3-3.5h14.2l0.3,3.5h1.4v0.8h0.9v0.3v0.2h0.2h0.3c0,0,0,0,0,0
	c0,0,0,0,0,0h6.9h4.8c0,0,0,0,0,0c0,0,0,0,0,0h0.3h0.2v-0.2v-0.3h0.8v-0.8h1.4l0.3-3.5h13.9l0.3,3.5h1.4v0.8h0.8v0.3v0.2h0.2h0.3
	c0,0,0,0,0,0c0,0,0,0,0,0h-0.3v-0.1h7.2h5.1v0.1h-0.3c0,0,0,0,0,0c0,0,0,0,0,0h0.3h0.2v-0.2v-0.3h0.8v-0.8h1.3l0.3-3.5H675l0.3,3.5
	h1.4v0.8h0.8v0.3v0.2h0.2h0.3c0,0,0,0,0,0c0,0,0,0,0,0h6.8h4.8c0,0,0,0,0,0c0,0,0,0,0,0h0.3h0.2v-0.2v-0.3h0.8v-0.8h1.5l0.3-5
	l13.3,0l1,5.1h1.4v0.8h0.8v0.3v0.2h0.2h0.3c0,0,0,0,0,0c0,0,0,0,0,0h6.9h4.8c0,0,0,0,0,0c0,0,0,0,0,0h0.3h0.2v-0.2v-0.3h0.8v-0.8
	h1.4l0.3-3.5h14.2l0.3,3.5h1.4v0.8h0.8v0.3v0.2h0.2h0.3c0,0,0,0,0,0c0,0,0,0,0,0h-0.3v-0.1h7.2h5.2v0.1h-0.3c0,0,0,0,0,0
	c0,0,0,0,0,0h0.3h0.2v-0.2v-0.3h0.8v-0.8h1.4l0.3-3.5h14.1l0.3,3.5h1.4v0.8h0.8v0.3v0.2h0.2h0.3c0,0,0,0,0,0c0,0,0,0,0,0h6.8h4.8
	c0,0,0,0,0,0c0,0,0,0,0,0h0.3h0.2v-0.2v-0.3h0.8v-0.8h1.4l0.3-3.5h14.1l0.3,3.5h1.4v0.8h0.8v0.3v0.2h0.2h0.3c0,0,0,0,0,0
	c0,0,0,0,0,0h6.8h4.8c0,0,0,0,0,0c0,0,0,0,0,0h0.3h0.2v-0.2v-0.3h0.8v-0.8h1.2l0.3-5.1l13.4,0l1,5.1h1.4v0.8h0.8v0.3v0.2h0.2h0.3
	c0,0,0,0,0,0c0,0,0,0,0,0h6.9h4.8c0,0,0,0,0,0c0,0,0,0,0,0h0.3h0.2v-0.2v-0.3h0.8v-0.8h1.4l0.3-3.5H866l0.3,3.5l1.4,0v0.8h0.8v0.3
	v0.2h0.2h0.3c0,0,0,0,0,0c0,0,0,0,0,0h6.9h4.8c0,0,0,0,0,0c0,0,0,0,0,0h0.3h0.2v-0.2v-0.3h0.9v-0.8h1.3l0.3-3.5h13.9l0.3,3.5l1.4,0
	v0.8h0.9v0.3v0.2h0.2h0.3c0,0,0,0,0,0c0,0,0,0,0,0h6.9h0h4.8c0,0,0,0,0,0c0,0,0,0,0,0h0.3h0.2v-0.2v-0.3h0.8v-0.8h1.3l0.5-3.4h11.9
	v4.8h1.8v0.8l-0.7,0v0l-0.2,0l0,0.4v0.2h0h0h0h0v4.8v8.7h0h0h0h0v0.2v0.2v0.2h0.2h0.7v0.8h-2.6v2.2l5.1,0.5l0,10l-5.1,0.5v2.2h2.6
	v0.8h-0.7h-0.2v0.2v0.2v0.2h0h0h0h0v6.6v6.6h0h0h0h0v0.2v0.2v0.2h0.2h0.7v0.8h-2.6v2.2l5.1,0.5v10l-5.1,0.5v2.2h2.6v0.8h-0.7h-0.2
	v0.2v0.2v0.2h0h0h0h0v6.6l0,6.6h0h0h0h0v0.2v0.2v0.2h0.2l1.5,0l-0.8,0v0.8h-2.6l0,2.2l5.1,0.5l0,10.6l-5.1,0.5l0,2.2h2.6l0,0.8
	l-0.7,0h-0.2v0.2v0.2v0.2h0h0h0h0l0,6.6v6.6h0h0h0h0v0.2v0.2v0.2h0.2h0.7v0.9h-2.6v2.2l5.1,0.5l0,10l-5.1,0.5v2.2h2.6v0.8h-0.7h-0.2
	v0.4v0.2h0h0h0h0v6.6v6.6h0h0h0h0v0.2v0.2v0.2h0.2h0.7v0.9h-2.6v2.2l5.1,0.5l0,10.1l-5.1,0.5v2.2h2.6v0.8h-0.7h-0.2v0.2v0.2v0.2h0h0
	h0h0l0,6.6v6.6h0h0h0h0v0.2v0.2v0.2h0.2l0.7,0v0.8h-2.6v2.2l5.2,0.5l-0.1,10l-5.1,0.5v2.2h2.6v0.8h-0.7h-0.2v0.2v0.2v0.2h0h0h0h0
	v6.6l0,6.6h0h0h0h0v0.2v0.2v0.2h0.2h0.7v0.8v0.2h-2.6v2.2l5.1,0.5l0,10l-5.1,0.5v2.2h2.6v0.8h-0.7h-0.2v0.2v0.2v0.2h0h0h0h0v6.6
	l0,6.6h0h0h0h0v0.2v0.2v0.2h0.2h0.7v0.8h-2.6l0,2.2l5.1,0.5v10.8l-5.1,0.5v2.2h2.6v0.9h-0.7h-0.2v0.2v0.2v0.2h0h0h0h0l0,6.6v6.6h0h0
	h0h0v0.2v0.2v0.2h0.2h0.7v0.9h-2.5l0,2.2l5.1,0.5l0,9.9l-5.1,0.5l0,2.2l3.5,0v0h-0.9v0.8l-0.7,0h-0.2v0.2v0.2v0.2h0h0h0h0v6.6l0,6.6
	h0h0h0h0v0.2v0.2v0.2h0.2h0.7v0.8l-2.5,0l0,2.2l5.1,0.5l0,11.1h9.4l0.7,5h2v-2.6h0h0.8v0.7v0.2h0.2h0.2h0.2v0v0v0v0l6.6,0l6.6,0v0v0
	v0v0h0.2h0.2h0.2v-0.2v-0.7h0.8v-0.8h0.1l0,3.3l2.2,0l0.3-5.1l9.6,0l0.3,5.1h2.2l0-2.5h0.8l0,0.7v0.2h0h0.2h0.2h0.2v0v0l13.1,0v0v0
	v0h0.2h0.2h0.2v-0.2v-1.5h0.8h0.1l0,3.3l2.2,0l0.4-5.1l9.5-0.1l0.3,5.1l2.2,0l0-2.5h0.8v0.7v0.2h0h0.2h0.2h0.2v0v0v0v0l13.2,0v0v0v0
	v0h0.2h0.2h0.2v-0.2l0-1.5l0,0.8h0.8h0.2l0,2.7l2.2,0l0.4-5.1l9.5,0l0.3,5.1h2.2l0-2.7h0h0.8v0.7v0.2h0.2h0.2h0.2v0v0v0v0l6.6,0
	l4.9,0v0v0v0v0h0.2h0.2h0.2l0-0.9h0.9l0,2.7l2.2,0l0.3-5.1l13-0.1l0.3,5.1l2.2,0v-2.6h0h0.8v0.7v0.2h0.2h0.2h0.2v0v0v0v0l5.3,0
	l6.6,0v0v0v0v0h0.2h0.2h0.2v-0.2v-0.7h0.8v-0.9h0v3.4l2.2,0v-5.1l10.4,0l-0.1,5.1h2.2l0-2.6h0.8l0,0.7v0.2h0h0.2h0.2h0.2v0v0v0v0
	l6.6,0l6.6,0v0v0v0v0h0.2h0.2h0.2v-0.2v-0.7h0.8h0.4l0,2.8l2.2,0l0.1-5.1l10.2-0.1l0,5.1l2.2,0l0-2.6h0h0.8l0,0.7v0.2h0.2h0.2h0.2v0
	v0v0v0l6.6,0l6.6,0v0v0v0v0h0.2h0.2h0.2v-0.2v-0.7l0.7,0l0,2.6l2.2,0l0.3-5.1l9.6,0l0.3,5.1l2.2,0v0.2h-2.2v0.8l0,19.3v0.8l0,21.1
	v0.2v2.3h2v0.4h63.6h0.8h21.9h0.8h21.9h0.8h21.9h0.8h22h0.8h22h0.8h21.9h0.8h21.9h0.8h27.3v0v-2.5h-0.8l0.8-0.1h2.5v-0.8v-20.9h0
	v-0.8h0v-21.9h0v-0.8h0v-21.9h0v-0.8h0v-21.9h0v-0.8h0v-21.9h0v-0.8h0v-21.9h0V918h0v-21.9h0v-0.8h0v-21.9h0v-0.8h0v-21.9h0v-0.8h0
	v-21.9h0V827h0V805h0v-0.8h0v-21.9h0v-0.8h0v-21.9h0v-0.8h0v-21.9h0v-0.8h0v-21.9h0v-0.8h0v-21.9h0v-0.8h0v-21.9h0v-0.8h0v-21.9h0
	v-0.8h0v-21.9h0V622h0v-21.9h0v-0.8h0v-21.9h0v-0.8h0v-21.9h0v-0.8h0v-21.9h0v-0.8h0V509h0v-0.8h0v-21.9h0v-0.8h0v-21.9h0v-0.8h0
	v-21.9h0v-0.8h0v-21.9h0v-0.8h0v-21.9h0v-0.8h0v-21.9h0v-0.8h0v-21.9h0v-0.8h0v-21.9h0V326h0v-21.9h0v-0.8h0v-21.9h0v-0.8h0v-21.9h0
	v-0.8h0v-21.9h0v-0.8h0V213h0v-0.8h0v-21.9h0v-0.8h0v-21.9h0v-0.8h0v-21.9h0v-0.8h0v-21.9h0v-0.8h0V99.1h0v-0.8h0V76.4h0v-0.8h0
	V53.6h0v-0.8h0V32.3v-0.8h-2.5h0v-1.7h-0.8h-26.5h-0.8h-21.9h-0.8h-21.9h-0.8h-22h-0.8h-22h-0.8h-21.9h-0.8h-21.9h-0.8H1224h-0.8
	h-21.8v-0.4h-0.8v0.4h-21.9v-0.4h-0.8v0.4h-21.9v-0.4h-0.8v0.4h-26h-2.2h-0.3l0,22.7v0.8l0,24.6v0.8h2.2v0.1h-2.2l-0.2,5.1h-10.1
	l-0.2-5.1h-2.2v2.6h-0.8v-0.7v-0.2h-0.2h-0.2h-0.2v0v0v0v0h-6.6h-6.6v0v0v0v0h-0.2h-0.2h-0.2v0.2v0.7h-0.9v-2.6h-2.2l-0.5,5.1h-9.7
	l-0.5-5.1h-2.2v0v2.6h-0.8v-0.7v-0.2h-0.2h-0.2h-0.2v0v0v0v0h-6.6l-6.6,0v0v0v0v0h-0.2h-0.2h-0.2v0.2v0.7h-0.8v-2.6h-2.2l-0.5,5.1
	h-9.6l-0.3-5.1h-2.2v2.6h-0.8v-0.7v-0.2h-0.2h-0.2h-0.2v0v0v0v0h-6.6h-6.6v0v0v0v0h-0.2h-0.2h-0.2v0.2l0,1.5l0-0.8h-0.8v-2.6h-2.2
	l-0.5,5.1l-9.2,0l-0.5-5.1h-2.2v2.6h-0.8v-0.7v-0.2h-0.2h-0.2h-0.2v0v0v0v0h-6.6l-6.6,0v0v0v0v0h-0.2h-0.2h-0.2v0.2v0.7h-0.8v0.8h0
	v-3.4h-2.2l-0.3,5.1h-10l-0.3-5.1h-2v2.6h-0.8v-0.7v-0.2h-0.2h-0.2H989v0v0v0v0l-6.6,0h-6.6v0v0v0v0h-0.2h-0.2h-0.2v0.2v0.7l-0.8,0
	v-2.6h-2.2l-0.2,5.1h-10l-0.2-5.1h-2.2v2.6h0h-0.9v-0.7v-0.2h-0.2h-0.2h-0.2v0v0v0v0h-6.6l-6.6,0v0v0v0v0h-0.2h-0.4v0.2v0.7h-0.9
	v-2.6h-2.2l-0.2,5.1h-9.9l0,11.6l-5,0.5v1.4h2.6v0.8l-0.7,0h-0.2v0.2v0.2v0.2h0h0h0h0v6.6l0,6.6h0h0h0h0l0,0.4v0.2h0.2h0.7v0.8h-2.6
	v2.2l5,0.5l0,10l-5,0.5v2.2h3.5v0H929v0.8h-0.7h-0.2v0.2v0.2v0.2h0h0h0h0l0,6.6v6.6h0h0h0h0v0.2v0.2v0.2h0.2h0.7v0.8h-2.6v2.2
	l5.1,0.5v10.8l-5.1,0.5v2.2h2.6v0.8h-0.7h-0.2v0.2v0.2v0.2h0h0h0h0v6.6l0,6.6h0h0h0h0v0.2l0,0.2v0.2h0.2h0.7v0.8h-2.6v2.2l5.1,0.5
	l0,10l-5.1,0.5v2.2h3.5v0.2H929v0.9h-0.7h-0.2v0.2v0.2v0.2h0h0h0h0l0,6.6v6.6h0h0h0h0v0.2v0.2v0.2h0.2h0.7v0.8h-2.6v2.2l5.1,0.5v9.9
	l-5.1,0.5v2.2h3.1l-0.5,0v0.8h-0.7H928v0.2v0.2v0.2h0h0h0h0v6.6l0,6.6h0h0h0h0v0.2v0.2v0.2h0.2h0.7v0.8h-2.6v2.2l5.1,0.5l0,10.5
	l-5.1,0.5v2.2h2.6v0.9h-0.7H928v0.2v0.2v0.2h0h0h0h0l0,6.6v6.6h0h0h0h0v0.2v0.2v0.2h0.2h0.7v0.8h-2.6v2.2l5.1,0.5v9.8l-5.1,0.5v2.2
	h2.6v0.8h-0.7H928v0.2v0.2v0.2h0h0h0h0v6.6l0,6.6h0h0h0h0v0.2v0.2v0.2h0.2h0.7v0.8h-2.6v2.2l5.1,0.5l0,10.8l-5.1,0.5v2.2h2.6v0.9
	h-0.7H928v0.2v0.2v0.2h0h0h0h0l0,6.6v6.6h0h0h0h0v0.2v0.2v0.2h0.2h0.7v0.8h-2.6v2.2l5.1,0.5v9.8l-5.1,0.5v2.2h3.4v0h-0.8v0.8h-0.7
	H928v0.2v0.2v0.2h0h0h0h0v6.8l0,6.6h0h0h0h0v0.2l0,0.2v0.2h0.2h0.7v0.8h-2.6v2.2l5.1,0.5l0,9.8l-5.1,0.5v2.2h3.5v0h-0.8v0.8l-0.7,0
	v0l-0.2,0v0.2v0.2v0.2h0h0h0h0l0,6.8v6.6h0h0h0h0v0.2v0.2v0.2h0.2h0.7v0.6h-1.5l-0.5,4.5h-9l-0.5-5.1h-2.2l0,2.6H915h-0.8V399v-0.2
	H914h-0.2h-0.2v0v0v0v0l-6.6,0h-6.6v0v0v0v0h-0.2H900h-0.2v0.2v0.7H899l0-2.6h-2.2l-0.5,5.1l-10.3,0l-0.3-5.1l-2.2,0v2.6h0h-0.8
	v-0.7V399h-0.2h-0.2H882v0v0v0v0h-6.6h-6.6v0v0v0v0h-0.2h-0.2h-0.2v0.2v0.7h-0.8v0.8h0v-3.5l-2.2,0l-0.3,5.1l-10.6,0l-0.4-5.1
	l-2.2,0l0,2.7h-0.3h-0.8v-0.7v-0.2h-0.2h-0.2h-0.2v0v0v0v0h-6.6l-6.6,0v0v0v0v0h-0.2h-0.2h-0.2v0.2v0.7h-0.8l0-2.6l-2.2,0l-0.3,5.1
	l-10.7,0.1l-0.3-5.1l-2.2,0l0,2.6h0h-0.9v-0.7v-0.2h-0.2h-0.2h-0.2v0v0v0v0h-6.6h-6.6v0v0v0v0H805h-0.2h-0.2v0.2l0,0.7h-0.9v0.8h0
	l0-3.5l-2.2,0l-0.3,5.1l-10.6,0l-0.4-5.1l-2.2,0l0,2.7h-0.8v-0.7v-0.2H787h-0.2h-0.2v0v0v0v0h-6.7l-6.6,0v0v0v0v0h-0.2h-0.2h-0.2
	v0.2v0.7h-0.8l0-2.6l-2.2,0l-0.3,5.1l-10.7,0l-0.3-5.1l-2.2,0v2.6h-0.1h-0.8l0-0.7v-0.2h-0.2h-0.2h-0.2v0v0v0v0h-6.6h-6.6v0v0v0v0
	h-0.2h-0.2h-0.2v0.2v0.7h-0.8v-2.6h-2.2l-0.3,5.1l-10.3,0l-0.3-5.1h-2.2v2.6h-0.8l0-0.7v-0.2h-0.2h-0.2h-0.2v0v0v0v0l-7.3,0h-6.6v0
	v0v0v0h-0.2H709h-0.2v0.2v0.7h-0.8v-2.6h-2.2l-0.3,5.1l-10.3,0l-0.3-5.1h-2.2l0,3.3h-0.1v-0.8h-0.8l0-0.7v-0.2h-0.2h-0.2H691v0v0v0
	v0h-6.6h-6.6v0v0v0v0h-0.2h-0.2h-0.2v0.2v0.7H676.4L676.4,400.1z"/>
<g>
	<defs>
		<polygon id="_x30_2A_x5F_EXS_1_" points="310.5,394 584.4,394 580.8,583.5 343.4,587.7 318.5,597.3 		"/>
	</defs>
	<clipPath id="_x30_2A_x5F_EXS_2_">
		<use xlink:href="#_x30_2A_x5F_EXS_1_"  style="overflow:visible;"/>
	</clipPath>
	<g style="clip-path:url(#_x30_2A_x5F_EXS_2_);">
		
			<image style="overflow:visible;" width="4619" height="4260" xlink:href="ExistingFloorplan.png"  transform="matrix(0.24 0 0 0.24 306.4585 34.3538)">
		</image>
	</g>
</g>
<g>
	<defs>
		<polygon id="_x30_3A_x5F_EXS_1_" points="316,690.3 320,599.3 344.3,590 634.6,584 682.2,598.5 683,690.3 576.1,690.3 
			576.1,587.7 469.5,588.2 459.4,600.6 424.5,602.5 419.8,692.3 		"/>
	</defs>
	<clipPath id="_x30_3A_x5F_EXS_2_">
		<use xlink:href="#_x30_3A_x5F_EXS_1_"  style="overflow:visible;"/>
	</clipPath>
	<g style="clip-path:url(#_x30_3A_x5F_EXS_2_);">
		
			<image style="overflow:visible;" width="4619" height="4260" xlink:href="ExistingFloorplan.png"  transform="matrix(0.24 0 0 0.24 306.4585 34.3538)">
		</image>
	</g>
</g>
<g>
	<defs>
		<polygon id="_x31_3A_x5F_EXS_1_" points="422.3,692.3 427,608.7 474.8,600.6 480.3,590.3 554.3,590.3 561.6,688.3 		"/>
	</defs>
	<clipPath id="_x31_3A_x5F_EXS_2_">
		<use xlink:href="#_x31_3A_x5F_EXS_1_"  style="overflow:visible;"/>
	</clipPath>
	<g style="clip-path:url(#_x31_3A_x5F_EXS_2_);">
		
			<image style="overflow:visible;" width="4619" height="4260" xlink:href="ExistingFloorplan.png"  transform="matrix(0.24 0 0 0.24 306.4585 34.3538)">
		</image>
	</g>
</g>
<g>
	<defs>
		<polygon id="_x33_3A_x5F_EXS_1_" points="849.3,683.7 986.9,673.6 985,654.8 973.1,644.6 977.8,589.7 1076.9,595.1 1083,603.6 
			1085.1,673.6 1103.3,672.6 1100.3,587 1061.2,546.9 919.3,563.5 849.3,646.5 		"/>
	</defs>
	<clipPath id="_x33_3A_x5F_EXS_2_">
		<use xlink:href="#_x33_3A_x5F_EXS_1_"  style="overflow:visible;"/>
	</clipPath>
	<g style="clip-path:url(#_x33_3A_x5F_EXS_2_);">
		
			<image style="overflow:visible;" width="4619" height="4260" xlink:href="ExistingFloorplan.png"  transform="matrix(0.24 0 0 0.24 306.4585 34.3538)">
		</image>
	</g>
</g>
<g>
	<defs>
		<polygon id="_x36_1A_x5F_EXS_1_" points="989,659.6 986.9,650.9 975.7,643.8 981.7,596.3 1078.7,603.6 1077.4,659.9 1085.1,674.9 
			1107.3,674.9 1120,269 1158.9,254 1207,244 1211,190 1322.4,188.2 1327,485.7 1324.1,917.5 1302.1,917 1303.4,839.7 1198.4,837.9 
			1138.3,814.8 1119.5,690.9 1090.8,677.7 1082.8,675.9 		"/>
	</defs>
	<clipPath id="_x36_1A_x5F_EXS_2_">
		<use xlink:href="#_x36_1A_x5F_EXS_1_"  style="overflow:visible;"/>
	</clipPath>
	<g style="clip-path:url(#_x36_1A_x5F_EXS_2_);">
		
			<image style="overflow:visible;" width="4619" height="4260" xlink:href="ExistingFloorplan.png"  transform="matrix(0.24 0 0 0.24 306.4585 34.3538)">
		</image>
	</g>
</g>
<g>
	<defs>
		<polygon id="_x34_4A_x5F_EXS_1_" points="1083.7,677.7 1072.9,675.4 1039.4,674.9 958.8,697.8 933.5,978.1 936.5,1010 1107,1010 
			1300,990.2 1297.5,846 1192.8,844.3 1127.5,829.1 1111.8,696.3 		"/>
	</defs>
	<clipPath id="_x34_4A_x5F_EXS_2_">
		<use xlink:href="#_x34_4A_x5F_EXS_1_"  style="overflow:visible;"/>
	</clipPath>
	<g style="clip-path:url(#_x34_4A_x5F_EXS_2_);">
		
			<image style="overflow:visible;" width="4619" height="4260" xlink:href="ExistingFloorplan.png"  transform="matrix(0.24 0 0 0.24 306.4585 34.3538)">
		</image>
	</g>
</g>
<g>
	<defs>
		<polygon id="_x37_6A_x5F_EXS_1_" points="1408.4,968.6 1367.9,968.6 1322.7,993 1322.7,1057.8 1415.5,1057.8 1415.5,983.3 		"/>
	</defs>
	<clipPath id="_x37_6A_x5F_EXS_2_">
		<use xlink:href="#_x37_6A_x5F_EXS_1_"  style="overflow:visible;"/>
	</clipPath>
	<g style="clip-path:url(#_x37_6A_x5F_EXS_2_);">
		
			<image style="overflow:visible;" width="4619" height="4260" xlink:href="ExistingFloorplan.png"  transform="matrix(0.24 0 0 0.24 306.4585 34.3538)">
		</image>
	</g>
</g>
<g>
	<defs>
		<polygon id="_x37_1A_x5F_EXS_1_" points="1417.8,967.6 1338.8,967.6 1329.3,505.9 1336.9,140.4 1420.7,142.5 		"/>
	</defs>
	<clipPath id="_x37_1A_x5F_EXS_2_">
		<use xlink:href="#_x37_1A_x5F_EXS_1_"  style="overflow:visible;"/>
	</clipPath>
	<g style="clip-path:url(#_x37_1A_x5F_EXS_2_);">
		
			<image style="overflow:visible;" width="4619" height="4260" xlink:href="ExistingFloorplan.png"  transform="matrix(0.24 0 0 0.24 306.4585 34.3538)">
		</image>
	</g>
</g>
<g id="EXS40A">
	<defs>
		<polygon id="EXS40Apath" points="907.5,422.5 974.5,422.5 1106.5,401 1108.5,264.9 1204.5,235 1207.1,187 1297.4,183 1297.4,120 
			1244.2,86 930,86 		"/>
	</defs>
	<clipPath id="EXS40Apath_1_">
		<use xlink:href="#EXS40Apath"  style="overflow:visible;"/>
	</clipPath>
	<g style="clip-path:url(#EXS40Apath_1_);">
		
			<image style="overflow:visible;" width="4619" height="4260" xlink:href="ExistingFloorplan.png"  transform="matrix(0.24 0 0 0.24 306.4585 34.3538)">
		</image>
	</g>
</g>
<polygon id="_x30_2A_x5F_PRP_1_" class="st1" points="316.7,402 587.1,402 586.7,580 334.1,580 316.7,594 "/>
<polygon id="_x30_3A_x5F_PRP_1_" class="st2" points="311,686.5 316.7,599.8 349.2,582.4 714.5,582.4 714.5,593.9 678,691 
	581.5,680.1 581.5,640 595.8,585 544.8,584.8 540.3,604.3 418.9,605.4 408.5,686.8 "/>
<polygon id="_x31_3A_x5F_PRP_1_" class="st2" points="436.5,681.2 581.2,679 581.1,668.7 580.7,668 580.8,592.3 584.6,587.1 
	551.5,586.4 537,615.7 454.6,614.1 "/>
<polygon id="_x33_3A_x5F_PRP_1_" class="st2" points="852.3,663.5 960,655.3 956.5,580 908.5,580.8 842.2,633.2 "/>
<polygon id="_x34_4A_x5F_PRP_1_" class="st2" points="909.9,665.1 1147.2,665.1 1147.2,821.2 1200.9,826.4 1203,877.7 1300.7,885.3 
	1312.6,909.7 1311.4,934.9 1237.1,1006.3 926,1005.2 "/>
<polygon id="_x37_1A_x5F_PRP_1_" class="st2" points="1307.9,860.5 1309,901.4 1398,901.3 1419.3,600.4 1407.9,151.8 1292.1,163.7 
	1333.7,256 1313.3,282.3 1322.7,310.3 1329,337 1330,419 1351.3,462 1331.3,488.3 1321.5,666.7 1327.6,860.8 "/>
<polygon id="_x37_6A_x5F_PRP_1_" class="st2" points="1331.8,989.8 1399.7,989.2 1397.3,1045.7 1326.7,1045.7 "/>
<polygon id="_x36_1A_x5F_PRP_1_" class="st2" points="1323.8,859.4 1301.9,859.9 1246.2,874.5 1203,852 1203,824.8 1158.3,803.7 
	1155.4,655.6 988.7,645.5 992,583.5 1116.7,577 1116.7,392.5 1149.8,310 1162.8,216.2 1300.4,192 1330.3,251.8 1305.4,287.2 
	1327.8,345.2 1328.3,424 1334.7,440.8 1325,457.7 1319.2,609.5 1319.3,721.5 1322.3,734 "/>
<polygon id="_x34_0A_x5F_PRP_1_" class="st2" points="931.5,81.5 931.5,419.5 1104.8,411.5 1140.5,310.6 1157.6,212.2 1258.5,195 
	1252.5,84 "/>
</svg>
